{
  "accessors": [
    {
      "bufferView": 2,
      "componentType": 5126,
      "count": 176,
      "max": [
        0.4046797454357147,
        -0.0896003469824791,
        0.15473900735378265
      ],
      "min": [
        -0.38787955045700073,
        -0.2363426238298416,
        -0.23672664165496826
      ],
      "type": "VEC3"
    },
    {
      "bufferView": 2,
      "byteOffset": 2112,
      "componentType": 5126,
      "count": 176,
      "max": [
        0.967329204082489,
        0.9673113822937012,
        0.9673113822937012
      ],
      "min": [
        -0.967329204082489,
        -0.9673166871070862,
        -0.9673166871070862
      ],
      "type": "VEC3"
    },
    {
      "bufferView": 3,
      "componentType": 5126,
      "count": 176,
      "max": [
        0.9849942922592163,
        0.8048466444015503,
        0.9839423298835754,
        1.0
      ],
      "min": [
        -0.9849943518638611,
        -0.7542555332183838,
        -0.9844119548797607,
        -1.0
      ],
      "type": "VEC4"
    },
    {
      "bufferView": 1,
      "componentType": 5126,
      "count": 176,
      "max": [
        0.9927912354469299,
        0.9982054829597473
      ],
      "min": [
        0.003693874692544341,
        0.0031163934618234634
      ],
      "type": "VEC2"
    },
    {
      "bufferView": 0,
      "componentType": 5125,
      "count": 648,
      "type": "SCALAR"
    }
  ],
  "asset": {
    "extras": {
      "author": "CG Buzz (https://sketchfab.com/Tapan_S)",
      "license": "CC-BY-4.0 (http://creativecommons.org/licenses/by/4.0/)",
      "source": "https://sketchfab.com/3d-models/dvd-stacks-low-poly-free-download-81a4b2439e494ddc9a457e9a4becf95a",
      "title": "DVD STACKS (LOW POLY) (Free Download)"
    },
    "generator": "Sketchfab-12.67.0",
    "version": "2.0"
  },
  "bufferViews": [
    {
      "buffer": 0,
      "byteLength": 2592,
      "name": "floatBufferViews",
      "target": 34963
    },
    {
      "buffer": 0,
      "byteLength": 1408,
      "byteOffset": 2592,
      "byteStride": 8,
      "name": "floatBufferViews",
      "target": 34962
    },
    {
      "buffer": 0,
      "byteLength": 4224,
      "byteOffset": 4000,
      "byteStride": 12,
      "name": "floatBufferViews",
      "target": 34962
    },
    {
      "buffer": 0,
      "byteLength": 2816,
      "byteOffset": 8224,
      "byteStride": 16,
      "name": "floatBufferViews",
      "target": 34962
    }
  ],
  "buffers": [
    {
      "byteLength": 11040,
      "uri": "scene.bin"
    }
  ],
  "images": [
    {
      "uri": "textures/Material.001_baseColor.jpeg"
    },
    {
      "uri": "textures/Material.001_metallicRoughness.png"
    },
    {
      "uri": "textures/Material.001_normal.jpeg"
    }
  ],
  "materials": [
    {
      "doubleSided": true,
      "name": "Material.001",
      "normalTexture": {
        "index": 2
      },
      "occlusionTexture": {
        "index": 1
      },
      "pbrMetallicRoughness": {
        "baseColorTexture": {
          "index": 0
        },
        "metallicFactor": 0.0,
        "metallicRoughnessTexture": {
          "index": 1
        }
      }
    }
  ],
  "meshes": [
    {
      "name": "Cube.001_Material.001_0",
      "primitives": [
        {
          "attributes": {
            "NORMAL": 1,
            "POSITION": 0,
            "TANGENT": 2,
            "TEXCOORD_0": 3
          },
          "indices": 4,
          "material": 0,
          "mode": 4
        }
      ]
    }
  ],
  "nodes": [
    {
      "children": [
        1
      ],
      "matrix": [
        0.005844971165060997,
        0.0,
        0.0,
        0.0,
        0.0,
        1.297844313144169e-18,
        -0.005844971165060997,
        0.0,
        0.0,
        0.005844971165060997,
        1.297844313144169e-18,
        0.0,
        0.0,
        0.0,
        0.0,
        1.0
      ],
      "name": "Sketchfab_model"
    },
    {
      "children": [
        2
      ],
      "matrix": [
        1.0,
        0.0,
        0.0,
        0.0,
        0.0,
        0.0,
        1.0,
        0.0,
        0.0,
        -1.0,
        0.0,
        0.0,
        0.0,
        0.0,
        0.0,
        1.0
      ],
      "name": "12c0978dc605437fa1ba2a6bd2b22228.fbx"
    },
    {
      "children": [
        3
      ],
      "name": "RootNode"
    },
    {
      "children": [
        4
      ],
      "matrix": [
        100.0,
        0.0,
        0.0,
        0.0,
        -0.0,
        -1.629206793918314e-05,
        -99.99999999999868,
        0.0,
        0.0,
        99.99999999999868,
        -1.629206793918314e-05,
        0.0,
        -5.706282138824463,
        -22.40606689453125,
        -127.3930435180664,
        1.0
      ],
      "name": "Cube.001"
    },
    {
      "mesh": 0,
      "name": "Cube.001_Material.001_0"
    }
  ],
  "samplers": [
    {
      "magFilter": 9729,
      "minFilter": 9987,
      "wrapS": 10497,
      "wrapT": 10497
    }
  ],
  "scene": 0,
  "scenes": [
    {
      "name": "Sketchfab_Scene",
      "nodes": [
        0
      ]
    }
  ],
  "textures": [
    {
      "sampler": 0,
      "source": 0
    },
    {
      "sampler": 0,
      "source": 1
    },
    {
      "sampler": 0,
      "source": 2
    }
  ]
}
