{
  "accessors": [
    {
      "bufferView": 2,
      "componentType": 5126,
      "count": 5047,
      "max": [
        1.0625948905944824,
        1.5215215682983398,
        1.6473307609558105
      ],
      "min": [
        -1.0761412382125854,
        -13.28367805480957,
        -4.970071792602539
      ],
      "type": "VEC3"
    },
    {
      "bufferView": 2,
      "byteOffset": 60564,
      "componentType": 5126,
      "count": 5047,
      "max": [
        1.0,
        1.0,
        1.0
      ],
      "min": [
        -1.0,
        -1.0,
        -1.0
      ],
      "type": "VEC3"
    },
    {
      "bufferView": 1,
      "componentType": 5126,
      "count": 5047,
      "max": [
        0.9872965812683105,
        0.9866424202919006
      ],
      "min": [
        0.01270294189453125,
        0.01270294189453125
      ],
      "type": "VEC2"
    },
    {
      "bufferView": 1,
      "byteOffset": 40376,
      "componentType": 5126,
      "count": 5047,
      "max": [
        0.9872965812683105,
        0.9866424202919006
      ],
      "min": [
        0.01270294189453125,
        0.01270294189453125
      ],
      "type": "VEC2"
    },
    {
      "bufferView": 1,
      "byteOffset": 80752,
      "componentType": 5126,
      "count": 5047,
      "max": [
        0.9872965812683105,
        0.9866424202919006
      ],
      "min": [
        0.01270294189453125,
        0.01270294189453125
      ],
      "type": "VEC2"
    },
    {
      "bufferView": 0,
      "componentType": 5125,
      "count": 8061,
      "type": "SCALAR"
    }
  ],
  "asset": {
    "extras": {
      "author": "xwbash (https://sketchfab.com/xbash)",
      "license": "CC-BY-4.0 (http://creativecommons.org/licenses/by/4.0/)",
      "source": "https://sketchfab.com/3d-models/bookshelf-low-poly-87eab647ca624962a7c178c0105643aa",
      "title": "Bookshelf Low Poly"
    },
    "generator": "Sketchfab-12.66.0",
    "version": "2.0"
  },
  "bufferViews": [
    {
      "buffer": 0,
      "byteLength": 32244,
      "name": "floatBufferViews",
      "target": 34963
    },
    {
      "buffer": 0,
      "byteLength": 121128,
      "byteOffset": 32244,
      "byteStride": 8,
      "name": "floatBufferViews",
      "target": 34962
    },
    {
      "buffer": 0,
      "byteLength": 121128,
      "byteOffset": 153372,
      "byteStride": 12,
      "name": "floatBufferViews",
      "target": 34962
    }
  ],
  "buffers": [
    {
      "byteLength": 274500,
      "uri": "scene.bin"
    }
  ],
  "images": [
    {
      "uri": "textures/Plane_Bake1_baked_baseColor.png"
    },
    {
      "uri": "textures/Plane_Bake1_baked_metallicRoughness.png"
    }
  ],
  "materials": [
    {
      "doubleSided": true,
      "name": "Plane_Bake1_baked",
      "pbrMetallicRoughness": {
        "baseColorTexture": {
          "index": 0
        },
        "metallicRoughnessTexture": {
          "index": 1
        }
      }
    }
  ],
  "meshes": [
    {
      "name": "Plane_Baked_Plane_Bake1_baked_0",
      "primitives": [
        {
          "attributes": {
            "NORMAL": 1,
            "POSITION": 0,
            "TEXCOORD_0": 2,
            "TEXCOORD_1": 3,
            "TEXCOORD_2": 4
          },
          "indices": 5,
          "material": 0,
          "mode": 4
        }
      ]
    }
  ],
  "nodes": [
    {
      "children": [
        1
      ],
      "matrix": [
        0.05520087480545044,
        0.0,
        0.0,
        0.0,
        0.0,
        1.2257056437692357e-17,
        -0.05520087480545044,
        0.0,
        0.0,
        0.05520087480545044,
        1.2257056437692357e-17,
        0.0,
        0.0,
        0.0,
        0.0,
        1.0
      ],
      "name": "Sketchfab_model"
    },
    {
      "children": [
        2
      ],
      "matrix": [
        0.009999999776482582,
        0.0,
        0.0,
        0.0,
        0.0,
        0.0,
        0.009999999776482582,
        0.0,
        0.0,
        -0.009999999776482582,
        0.0,
        0.0,
        0.0,
        0.0,
        0.0,
        1.0
      ],
      "name": "08e4cafbffc5476d9008dcc8a354c6df.fbx"
    },
    {
      "children": [
        3
      ],
      "name": "RootNode"
    },
    {
      "children": [
        4
      ],
      "matrix": [
        926.1067504882813,
        0.0,
        0.0,
        0.0,
        0.0,
        218.33613586425759,
        9.543775611788538e-06,
        0.0,
        0.0,
        -4.371138828673792e-06,
        99.9999999999999,
        0.0,
        32745.296875,
        2572.32958984375,
        -251.65652465820313,
        1.0
      ],
      "name": "Plane_Baked"
    },
    {
      "mesh": 0,
      "name": "Plane_Baked_Plane_Bake1_baked_0"
    }
  ],
  "samplers": [
    {
      "magFilter": 9729,
      "minFilter": 9987,
      "wrapS": 10497,
      "wrapT": 10497
    }
  ],
  "scene": 0,
  "scenes": [
    {
      "name": "Sketchfab_Scene",
      "nodes": [
        0
      ]
    }
  ],
  "textures": [
    {
      "sampler": 0,
      "source": 0
    },
    {
      "sampler": 0,
      "source": 1
    }
  ]
}
